<svg xmlns="http://www.w3.org/2000/svg" xmlns:xlink="http://www.w3.org/1999/xlink" width="78" height="31" viewBox="0 0 78 31" class="zyro-logo" data-v-02b36b8d=""><defs><path id="beta-black_svg__a" d="M.255.242h3.386v5.186H.255z"></path><path id="beta-black_svg__c" d="M.07.242h3.208v5.186H.07z"></path><path id="beta-black_svg__e" d="M.324.242h3.054v5.186H.324z"></path><path id="beta-black_svg__g" d="M.072.242h4.97v5.186H.072z"></path></defs><g fill="none" fill-rule="evenodd"><path fill="#000" d="M.147 10.521v4.252l5.69-.688L0 22.492V26l12-1.234v-4.365l-6.445.722 5.979-8.529V9zm51.475 4.999c.998-.353 1.752-1.001 2.261-1.945.515-.97.633-1.952.352-2.946-.283-1.002-.884-1.73-1.8-2.181-.899-.435-1.845-.468-2.839-.101-.99.366-1.736 1.022-2.241 1.968-.5.961-.609 1.935-.33 2.923.277.979.864 1.695 1.763 2.15.896.44 1.84.484 2.834.132M46.136 4.814c1.928-1.376 4.029-1.86 6.3-1.438 2.293.433 4.076 1.656 5.339 3.665 1.257 2.002 1.622 4.198 1.095 6.574-.529 2.354-1.783 4.185-3.75 5.496-1.96 1.305-4.05 1.718-6.273 1.25-2.213-.474-3.923-1.679-5.14-3.616-1.222-1.945-1.605-4.07-1.145-6.389.468-2.324 1.656-4.172 3.574-5.542m-21.452 2.06v8.169a4.112 4.112 0 01-.98 2.695c-.642.786-1.419 1.228-2.328 1.328-.906.101-1.678-.168-2.319-.804-.638-.634-.957-1.448-.957-2.442V7.76l-4.084.549v7.994c0 2.192.707 3.998 2.13 5.424 1.43 1.416 3.17 2.024 5.23 1.815 1.515-.153 2.62-.684 3.308-1.592v.565a4.054 4.054 0 01-.98 2.68c-.642.776-1.419 1.206-2.328 1.293 0 0-2.41.305-4.02-1.433L14.82 27.25l-.817.708s2.559 3.03 6.593 3.042l.002-.005c.256.006.514.003.778-.02 2.06-.177 3.835-1.13 5.32-2.867 1.494-1.729 2.25-3.733 2.259-6.004V6.299l-4.27.575zm16.341 1.761V4.758s-2.807.03-4.274.967a3.726 3.726 0 00-.598.42l.011-.743-4.228.56v16.483l3.98-.346.132-8.875c.081-1.038.68-4.2 4.977-4.59"></path><g transform="translate(60.049)"><mask id="beta-black_svg__b" fill="#fff"><use xlink:href="#beta-black_svg__a"></use></mask><path fill="#000" d="M2.029 4.622c.219 0 .407-.08.565-.238a.757.757 0 00.24-.561c0-.22-.08-.407-.24-.562a.773.773 0 00-.565-.234h-.962v1.595h.962zm-.962-2.404h.912c.162 0 .3-.058.414-.171a.553.553 0 00.175-.412.553.553 0 00-.175-.412.56.56 0 00-.414-.174h-.912v1.169zm1.96.34c.41.325.614.746.614 1.265 0 .44-.157.818-.472 1.133a1.56 1.56 0 01-1.14.472H.255V.242H1.98c.386 0 .717.136.994.409.271.27.407.598.407.984 0 .352-.118.66-.354.923z" mask="url(#beta-black_svg__b)"></path></g><g transform="translate(64.996)"><mask id="beta-black_svg__d" fill="#fff"><use xlink:href="#beta-black_svg__c"></use></mask><path fill="#000" d="M.07.242h3.208v.807H.882v1.378h2.396v.806H.882v1.393h2.396v.802H.07z" mask="url(#beta-black_svg__d)"></path></g><g transform="translate(69.182)"><mask id="beta-black_svg__f" fill="#fff"><use xlink:href="#beta-black_svg__e"></use></mask><path fill="#000" d="M3.378.242v.807H2.255v4.38h-.812v-4.38H.323V.242z" mask="url(#beta-black_svg__f)"></path></g><g transform="translate(72.988)"><mask id="beta-black_svg__h" fill="#fff"><use xlink:href="#beta-black_svg__g"></use></mask><path fill="#000" d="M3.204 3.127l-.643-1.538-.644 1.538h1.287zM2.88.242l2.163 5.186h-.876L3.54 3.933H1.58L.953 5.428h-.88L2.242.242h.637z" mask="url(#beta-black_svg__h)"></path></g></g></svg>